<svg width="31" height="26" viewBox="0 0 31 26" fill="none" xmlns="http://www.w3.org/2000/svg">
<g clip-path="url(#clip0_125_34)">
<path d="M4.74433 11.375C6.4441 11.375 7.82608 9.91758 7.82608 8.125C7.82608 6.33242 6.4441 4.875 4.74433 4.875C3.04455 4.875 1.66258 6.33242 1.66258 8.125C1.66258 9.91758 3.04455 11.375 4.74433 11.375ZM26.3166 11.375C28.0163 11.375 29.3983 9.91758 29.3983 8.125C29.3983 6.33242 28.0163 4.875 26.3166 4.875C24.6168 4.875 23.2348 6.33242 23.2348 8.125C23.2348 9.91758 24.6168 11.375 26.3166 11.375ZM27.8574 13H24.7757C23.9282 13 23.1626 13.3605 22.604 13.9445C24.5446 15.0668 25.9217 17.093 26.2203 19.5H29.3983C30.2506 19.5 30.9392 18.7738 30.9392 17.875V16.25C30.9392 14.4574 29.5572 13 27.8574 13ZM15.5304 13C18.5111 13 20.9235 10.4559 20.9235 7.3125C20.9235 4.16914 18.5111 1.625 15.5304 1.625C12.5498 1.625 10.1374 4.16914 10.1374 7.3125C10.1374 10.4559 12.5498 13 15.5304 13ZM19.2285 14.625H18.8289C17.8273 15.1328 16.715 15.4375 15.5304 15.4375C14.3459 15.4375 13.2384 15.1328 12.232 14.625H11.8324C8.76986 14.625 6.2852 17.2453 6.2852 20.475V21.9375C6.2852 23.2832 7.32048 24.375 8.59651 24.375H22.4644C23.7404 24.375 24.7757 23.2832 24.7757 21.9375V20.475C24.7757 17.2453 22.291 14.625 19.2285 14.625ZM8.45687 13.9445C7.89831 13.3605 7.13268 13 6.2852 13H3.20345C1.50368 13 0.121704 14.4574 0.121704 16.25V17.875C0.121704 18.7738 0.810282 19.5 1.66258 19.5H4.83582C5.13918 17.093 6.51633 15.0668 8.45687 13.9445Z" fill="#2F327D"/>
</g>
<defs>
<clipPath id="clip0_125_34">
<rect width="30.8175" height="26" fill="white" transform="translate(0.121704)"/>
</clipPath>
</defs>
</svg>
